# xmcd
#
# Track frame offsets:
#	150
#	8825
#	24647
#	40855
#	57207
#	85112
#	101747
#	119140
#	140427
#	158882
#	169807
#	185952
#	204447
#
# Disc length: 2886 seconds
#
# Revision: 0
# Processed by: cddbd v1.5.1PL0 Copyright (c) Steve Scherf et al.
# Submitted via: dBpowerAMP V4.0
#
DISCID=b40b440d
DTITLE=The Not Yet Famous Blues Band - TNYFBB
DYEAR=1997
DGENRE=Blues
TTITLE0=Mandacaru
TTITLE1=The Only Cure for Me Is You
TTITLE2=You're Making it Right
TTITLE3=Tease Me
TTITLE4=Evil Heart
TTITLE5=Tell Me Why
TTITLE6=Sweet Little Sun
TTITLE7=Be with You Tonight
TTITLE8=Don't Drag Me Down
TTITLE9=Wish You Were Dead
TTITLE10=Feeling Blue
TTITLE11=Watch Me Die
TTITLE12=Lunar Skies
EXTD=
EXTT0=
EXTT1=
EXTT2=
EXTT3=
EXTT4=
EXTT5=
EXTT6=
EXTT7=
EXTT8=
EXTT9=
EXTT10=
EXTT11=
EXTT12=
PLAYORDER=
